0
SECTION
2
HEADER
9
$ACADVER
1
AC1009
9
$INSUNITS
70
4
9
$MEASUREMENT
70
1
9
$EXTMIN
10
0.0
20
0.0
30
0.0
9
$EXTMAX
10
304.800000
20
304.800000
30
0.0
0
ENDSEC
0
SECTION
2
TABLES
0
TABLE
2
LAYER
70
1
0
LAYER
2
0
70
0
62
7
6
CONTINUOUS
0
ENDTAB
0
ENDSEC
0
SECTION
2
ENTITIES
0
POLYLINE
8
0
66
1
70
1
10
0.0
20
0.0
30
0.0
0
VERTEX
8
0
10
17.088342
20
155.366667
30
0.0
0
VERTEX
8
0
10
15.375536
20
152.400000
30
0.0
0
VERTEX
8
0
10
17.088342
20
149.433333
30
0.0
0
VERTEX
8
0
10
20.513954
20
149.433333
30
0.0
0
VERTEX
8
0
10
22.226759
20
146.466667
30
0.0
0
VERTEX
8
0
10
20.513954
20
143.500000
30
0.0
0
VERTEX
8
0
10
22.226759
20
140.533333
30
0.0
0
VERTEX
8
0
10
20.513954
20
137.566667
30
0.0
0
VERTEX
8
0
10
17.088342
20
137.566667
30
0.0
0
VERTEX
8
0
10
15.375536
20
134.600000
30
0.0
0
VERTEX
8
0
10
17.088342
20
131.633333
30
0.0
0
VERTEX
8
0
10
20.513954
20
131.633333
30
0.0
0
VERTEX
8
0
10
22.226759
20
128.666667
30
0.0
0
VERTEX
8
0
10
20.513954
20
125.700000
30
0.0
0
VERTEX
8
0
10
22.226759
20
122.733333
30
0.0
0
VERTEX
8
0
10
25.652371
20
122.733333
30
0.0
0
VERTEX
8
0
10
27.365177
20
125.700000
30
0.0
0
VERTEX
8
0
10
25.652371
20
128.666667
30
0.0
0
VERTEX
8
0
10
27.365177
20
131.633333
30
0.0
0
VERTEX
8
0
10
30.790788
20
131.633333
30
0.0
0
VERTEX
8
0
10
32.503594
20
134.600000
30
0.0
0
VERTEX
8
0
10
35.929206
20
134.600000
30
0.0
0
VERTEX
8
0
10
37.642011
20
131.633333
30
0.0
0
VERTEX
8
0
10
41.067623
20
131.633333
30
0.0
0
VERTEX
8
0
10
42.780429
20
134.600000
30
0.0
0
VERTEX
8
0
10
46.206040
20
134.600000
30
0.0
0
VERTEX
8
0
10
47.918846
20
131.633333
30
0.0
0
VERTEX
8
0
10
51.344458
20
131.633333
30
0.0
0
VERTEX
8
0
10
53.057264
20
128.666667
30
0.0
0
VERTEX
8
0
10
51.344458
20
125.700000
30
0.0
0
VERTEX
8
0
10
53.057264
20
122.733333
30
0.0
0
VERTEX
8
0
10
56.482875
20
122.733333
30
0.0
0
VERTEX
8
0
10
58.195681
20
125.700000
30
0.0
0
VERTEX
8
0
10
61.621293
20
125.700000
30
0.0
0
VERTEX
8
0
10
63.334098
20
122.733333
30
0.0
0
VERTEX
8
0
10
66.759710
20
122.733333
30
0.0
0
VERTEX
8
0
10
68.472516
20
119.766667
30
0.0
0
VERTEX
8
0
10
66.759710
20
116.800000
30
0.0
0
VERTEX
8
0
10
68.472516
20
113.833333
30
0.0
0
VERTEX
8
0
10
66.759710
20
110.866667
30
0.0
0
VERTEX
8
0
10
63.334098
20
110.866667
30
0.0
0
VERTEX
8
0
10
61.621293
20
107.900000
30
0.0
0
VERTEX
8
0
10
63.334098
20
104.933333
30
0.0
0
VERTEX
8
0
10
66.759710
20
104.933333
30
0.0
0
VERTEX
8
0
10
68.472516
20
101.966667
30
0.0
0
VERTEX
8
0
10
66.759710
20
99.000000
30
0.0
0
VERTEX
8
0
10
68.472516
20
96.033333
30
0.0
0
VERTEX
8
0
10
71.898127
20
96.033333
30
0.0
0
VERTEX
8
0
10
73.610933
20
99.000000
30
0.0
0
VERTEX
8
0
10
77.036545
20
99.000000
30
0.0
0
VERTEX
8
0
10
78.749351
20
96.033333
30
0.0
0
VERTEX
8
0
10
82.174962
20
96.033333
30
0.0
0
VERTEX
8
0
10
83.887768
20
93.066667
30
0.0
0
VERTEX
8
0
10
82.174962
20
90.100000
30
0.0
0
VERTEX
8
0
10
83.887768
20
87.133333
30
0.0
0
VERTEX
8
0
10
82.174962
20
84.166667
30
0.0
0
VERTEX
8
0
10
78.749351
20
84.166667
30
0.0
0
VERTEX
8
0
10
77.036545
20
81.200000
30
0.0
0
VERTEX
8
0
10
78.749351
20
78.233333
30
0.0
0
VERTEX
8
0
10
77.036545
20
75.266667
30
0.0
0
VERTEX
8
0
10
73.610933
20
75.266667
30
0.0
0
VERTEX
8
0
10
71.898127
20
72.300000
30
0.0
0
VERTEX
8
0
10
68.472516
20
72.300000
30
0.0
0
VERTEX
8
0
10
66.759710
20
75.266667
30
0.0
0
VERTEX
8
0
10
63.334098
20
75.266667
30
0.0
0
VERTEX
8
0
10
61.621293
20
72.300000
30
0.0
0
VERTEX
8
0
10
63.334098
20
69.333333
30
0.0
0
VERTEX
8
0
10
66.759710
20
69.333333
30
0.0
0
VERTEX
8
0
10
68.472516
20
66.366667
30
0.0
0
VERTEX
8
0
10
66.759710
20
63.400000
30
0.0
0
VERTEX
8
0
10
68.472516
20
60.433333
30
0.0
0
VERTEX
8
0
10
66.759710
20
57.466667
30
0.0
0
VERTEX
8
0
10
63.334098
20
57.466667
30
0.0
0
VERTEX
8
0
10
61.621293
20
54.500000
30
0.0
0
VERTEX
8
0
10
63.334098
20
51.533333
30
0.0
0
VERTEX
8
0
10
66.759710
20
51.533333
30
0.0
0
VERTEX
8
0
10
68.472516
20
48.566667
30
0.0
0
VERTEX
8
0
10
66.759710
20
45.600000
30
0.0
0
VERTEX
8
0
10
68.472516
20
42.633333
30
0.0
0
VERTEX
8
0
10
71.898127
20
42.633333
30
0.0
0
VERTEX
8
0
10
73.610933
20
45.600000
30
0.0
0
VERTEX
8
0
10
71.898127
20
48.566667
30
0.0
0
VERTEX
8
0
10
73.610933
20
51.533333
30
0.0
0
VERTEX
8
0
10
77.036545
20
51.533333
30
0.0
0
VERTEX
8
0
10
78.749351
20
54.500000
30
0.0
0
VERTEX
8
0
10
82.174962
20
54.500000
30
0.0
0
VERTEX
8
0
10
83.887768
20
51.533333
30
0.0
0
VERTEX
8
0
10
87.313380
20
51.533333
30
0.0
0
VERTEX
8
0
10
89.026185
20
54.500000
30
0.0
0
VERTEX
8
0
10
92.451797
20
54.500000
30
0.0
0
VERTEX
8
0
10
94.164603
20
51.533333
30
0.0
0
VERTEX
8
0
10
97.590214
20
51.533333
30
0.0
0
VERTEX
8
0
10
99.303020
20
48.566667
30
0.0
0
VERTEX
8
0
10
97.590214
20
45.600000
30
0.0
0
VERTEX
8
0
10
99.303020
20
42.633333
30
0.0
0
VERTEX
8
0
10
102.728632
20
42.633333
30
0.0
0
VERTEX
8
0
10
104.441438
20
45.600000
30
0.0
0
VERTEX
8
0
10
107.867049
20
45.600000
30
0.0
0
VERTEX
8
0
10
109.579855
20
42.633333
30
0.0
0
VERTEX
8
0
10
113.005467
20
42.633333
30
0.0
0
VERTEX
8
0
10
114.718272
20
39.666667
30
0.0
0
VERTEX
8
0
10
113.005467
20
36.700000
30
0.0
0
VERTEX
8
0
10
114.718272
20
33.733333
30
0.0
0
VERTEX
8
0
10
113.005467
20
30.766667
30
0.0
0
VERTEX
8
0
10
109.579855
20
30.766667
30
0.0
0
VERTEX
8
0
10
107.867049
20
27.800000
30
0.0
0
VERTEX
8
0
10
109.579855
20
24.833333
30
0.0
0
VERTEX
8
0
10
113.005467
20
24.833333
30
0.0
0
VERTEX
8
0
10
114.718272
20
21.866667
30
0.0
0
VERTEX
8
0
10
113.005467
20
18.900000
30
0.0
0
VERTEX
8
0
10
114.718272
20
15.933333
30
0.0
0
VERTEX
8
0
10
118.143884
20
15.933333
30
0.0
0
VERTEX
8
0
10
119.856690
20
18.900000
30
0.0
0
VERTEX
8
0
10
118.143884
20
21.866667
30
0.0
0
VERTEX
8
0
10
119.856690
20
24.833333
30
0.0
0
VERTEX
8
0
10
123.282301
20
24.833333
30
0.0
0
VERTEX
8
0
10
124.995107
20
27.800000
30
0.0
0
VERTEX
8
0
10
128.420719
20
27.800000
30
0.0
0
VERTEX
8
0
10
130.133525
20
24.833333
30
0.0
0
VERTEX
8
0
10
133.559136
20
24.833333
30
0.0
0
VERTEX
8
0
10
135.271942
20
27.800000
30
0.0
0
VERTEX
8
0
10
138.697554
20
27.800000
30
0.0
0
VERTEX
8
0
10
140.410359
20
24.833333
30
0.0
0
VERTEX
8
0
10
143.835971
20
24.833333
30
0.0
0
VERTEX
8
0
10
145.548777
20
21.866667
30
0.0
0
VERTEX
8
0
10
143.835971
20
18.900000
30
0.0
0
VERTEX
8
0
10
145.548777
20
15.933333
30
0.0
0
VERTEX
8
0
10
148.974388
20
15.933333
30
0.0
0
VERTEX
8
0
10
150.687194
20
18.900000
30
0.0
0
VERTEX
8
0
10
148.974388
20
21.866667
30
0.0
0
VERTEX
8
0
10
150.687194
20
24.833333
30
0.0
0
VERTEX
8
0
10
154.112806
20
24.833333
30
0.0
0
VERTEX
8
0
10
155.825612
20
27.800000
30
0.0
0
VERTEX
8
0
10
159.251223
20
27.800000
30
0.0
0
VERTEX
8
0
10
160.964029
20
24.833333
30
0.0
0
VERTEX
8
0
10
164.389641
20
24.833333
30
0.0
0
VERTEX
8
0
10
166.102446
20
27.800000
30
0.0
0
VERTEX
8
0
10
164.389641
20
30.766667
30
0.0
0
VERTEX
8
0
10
166.102446
20
33.733333
30
0.0
0
VERTEX
8
0
10
169.528058
20
33.733333
30
0.0
0
VERTEX
8
0
10
171.240864
20
36.700000
30
0.0
0
VERTEX
8
0
10
169.528058
20
39.666667
30
0.0
0
VERTEX
8
0
10
166.102446
20
39.666667
30
0.0
0
VERTEX
8
0
10
164.389641
20
42.633333
30
0.0
0
VERTEX
8
0
10
166.102446
20
45.600000
30
0.0
0
VERTEX
8
0
10
169.528058
20
45.600000
30
0.0
0
VERTEX
8
0
10
171.240864
20
42.633333
30
0.0
0
VERTEX
8
0
10
174.666475
20
42.633333
30
0.0
0
VERTEX
8
0
10
176.379281
20
39.666667
30
0.0
0
VERTEX
8
0
10
174.666475
20
36.700000
30
0.0
0
VERTEX
8
0
10
176.379281
20
33.733333
30
0.0
0
VERTEX
8
0
10
174.666475
20
30.766667
30
0.0
0
VERTEX
8
0
10
171.240864
20
30.766667
30
0.0
0
VERTEX
8
0
10
169.528058
20
27.800000
30
0.0
0
VERTEX
8
0
10
171.240864
20
24.833333
30
0.0
0
VERTEX
8
0
10
169.528058
20
21.866667
30
0.0
0
VERTEX
8
0
10
166.102446
20
21.866667
30
0.0
0
VERTEX
8
0
10
164.389641
20
18.900000
30
0.0
0
VERTEX
8
0
10
160.964029
20
18.900000
30
0.0
0
VERTEX
8
0
10
159.251223
20
21.866667
30
0.0
0
VERTEX
8
0
10
155.825612
20
21.866667
30
0.0
0
VERTEX
8
0
10
154.112806
20
18.900000
30
0.0
0
VERTEX
8
0
10
155.825612
20
15.933333
30
0.0
0
VERTEX
8
0
10
154.112806
20
12.966667
30
0.0
0
VERTEX
8
0
10
150.687194
20
12.966667
30
0.0
0
VERTEX
8
0
10
148.974388
20
10.000000
30
0.0
0
VERTEX
8
0
10
145.548777
20
10.000000
30
0.0
0
VERTEX
8
0
10
143.835971
20
12.966667
30
0.0
0
VERTEX
8
0
10
140.410359
20
12.966667
30
0.0
0
VERTEX
8
0
10
138.697554
20
15.933333
30
0.0
0
VERTEX
8
0
10
140.410359
20
18.900000
30
0.0
0
VERTEX
8
0
10
138.697554
20
21.866667
30
0.0
0
VERTEX
8
0
10
135.271942
20
21.866667
30
0.0
0
VERTEX
8
0
10
133.559136
20
18.900000
30
0.0
0
VERTEX
8
0
10
130.133525
20
18.900000
30
0.0
0
VERTEX
8
0
10
128.420719
20
21.866667
30
0.0
0
VERTEX
8
0
10
124.995107
20
21.866667
30
0.0
0
VERTEX
8
0
10
123.282301
20
18.900000
30
0.0
0
VERTEX
8
0
10
124.995107
20
15.933333
30
0.0
0
VERTEX
8
0
10
123.282301
20
12.966667
30
0.0
0
VERTEX
8
0
10
119.856690
20
12.966667
30
0.0
0
VERTEX
8
0
10
118.143884
20
10.000000
30
0.0
0
VERTEX
8
0
10
114.718272
20
10.000000
30
0.0
0
VERTEX
8
0
10
113.005467
20
12.966667
30
0.0
0
VERTEX
8
0
10
109.579855
20
12.966667
30
0.0
0
VERTEX
8
0
10
107.867049
20
15.933333
30
0.0
0
VERTEX
8
0
10
109.579855
20
18.900000
30
0.0
0
VERTEX
8
0
10
107.867049
20
21.866667
30
0.0
0
VERTEX
8
0
10
104.441438
20
21.866667
30
0.0
0
VERTEX
8
0
10
102.728632
20
24.833333
30
0.0
0
VERTEX
8
0
10
104.441438
20
27.800000
30
0.0
0
VERTEX
8
0
10
102.728632
20
30.766667
30
0.0
0
VERTEX
8
0
10
104.441438
20
33.733333
30
0.0
0
VERTEX
8
0
10
107.867049
20
33.733333
30
0.0
0
VERTEX
8
0
10
109.579855
20
36.700000
30
0.0
0
VERTEX
8
0
10
107.867049
20
39.666667
30
0.0
0
VERTEX
8
0
10
104.441438
20
39.666667
30
0.0
0
VERTEX
8
0
10
102.728632
20
36.700000
30
0.0
0
VERTEX
8
0
10
99.303020
20
36.700000
30
0.0
0
VERTEX
8
0
10
97.590214
20
39.666667
30
0.0
0
VERTEX
8
0
10
94.164603
20
39.666667
30
0.0
0
VERTEX
8
0
10
92.451797
20
42.633333
30
0.0
0
VERTEX
8
0
10
94.164603
20
45.600000
30
0.0
0
VERTEX
8
0
10
92.451797
20
48.566667
30
0.0
0
VERTEX
8
0
10
89.026185
20
48.566667
30
0.0
0
VERTEX
8
0
10
87.313380
20
45.600000
30
0.0
0
VERTEX
8
0
10
83.887768
20
45.600000
30
0.0
0
VERTEX
8
0
10
82.174962
20
48.566667
30
0.0
0
VERTEX
8
0
10
78.749351
20
48.566667
30
0.0
0
VERTEX
8
0
10
77.036545
20
45.600000
30
0.0
0
VERTEX
8
0
10
78.749351
20
42.633333
30
0.0
0
VERTEX
8
0
10
77.036545
20
39.666667
30
0.0
0
VERTEX
8
0
10
73.610933
20
39.666667
30
0.0
0
VERTEX
8
0
10
71.898127
20
36.700000
30
0.0
0
VERTEX
8
0
10
68.472516
20
36.700000
30
0.0
0
VERTEX
8
0
10
66.759710
20
39.666667
30
0.0
0
VERTEX
8
0
10
63.334098
20
39.666667
30
0.0
0
VERTEX
8
0
10
61.621293
20
42.633333
30
0.0
0
VERTEX
8
0
10
63.334098
20
45.600000
30
0.0
0
VERTEX
8
0
10
61.621293
20
48.566667
30
0.0
0
VERTEX
8
0
10
58.195681
20
48.566667
30
0.0
0
VERTEX
8
0
10
56.482875
20
51.533333
30
0.0
0
VERTEX
8
0
10
58.195681
20
54.500000
30
0.0
0
VERTEX
8
0
10
56.482875
20
57.466667
30
0.0
0
VERTEX
8
0
10
58.195681
20
60.433333
30
0.0
0
VERTEX
8
0
10
61.621293
20
60.433333
30
0.0
0
VERTEX
8
0
10
63.334098
20
63.400000
30
0.0
0
VERTEX
8
0
10
61.621293
20
66.366667
30
0.0
0
VERTEX
8
0
10
58.195681
20
66.366667
30
0.0
0
VERTEX
8
0
10
56.482875
20
69.333333
30
0.0
0
VERTEX
8
0
10
58.195681
20
72.300000
30
0.0
0
VERTEX
8
0
10
56.482875
20
75.266667
30
0.0
0
VERTEX
8
0
10
58.195681
20
78.233333
30
0.0
0
VERTEX
8
0
10
61.621293
20
78.233333
30
0.0
0
VERTEX
8
0
10
63.334098
20
81.200000
30
0.0
0
VERTEX
8
0
10
66.759710
20
81.200000
30
0.0
0
VERTEX
8
0
10
68.472516
20
78.233333
30
0.0
0
VERTEX
8
0
10
71.898127
20
78.233333
30
0.0
0
VERTEX
8
0
10
73.610933
20
81.200000
30
0.0
0
VERTEX
8
0
10
71.898127
20
84.166667
30
0.0
0
VERTEX
8
0
10
73.610933
20
87.133333
30
0.0
0
VERTEX
8
0
10
77.036545
20
87.133333
30
0.0
0
VERTEX
8
0
10
78.749351
20
90.100000
30
0.0
0
VERTEX
8
0
10
77.036545
20
93.066667
30
0.0
0
VERTEX
8
0
10
73.610933
20
93.066667
30
0.0
0
VERTEX
8
0
10
71.898127
20
90.100000
30
0.0
0
VERTEX
8
0
10
68.472516
20
90.100000
30
0.0
0
VERTEX
8
0
10
66.759710
20
93.066667
30
0.0
0
VERTEX
8
0
10
63.334098
20
93.066667
30
0.0
0
VERTEX
8
0
10
61.621293
20
96.033333
30
0.0
0
VERTEX
8
0
10
63.334098
20
99.000000
30
0.0
0
VERTEX
8
0
10
61.621293
20
101.966667
30
0.0
0
VERTEX
8
0
10
58.195681
20
101.966667
30
0.0
0
VERTEX
8
0
10
56.482875
20
104.933333
30
0.0
0
VERTEX
8
0
10
58.195681
20
107.900000
30
0.0
0
VERTEX
8
0
10
56.482875
20
110.866667
30
0.0
0
VERTEX
8
0
10
58.195681
20
113.833333
30
0.0
0
VERTEX
8
0
10
61.621293
20
113.833333
30
0.0
0
VERTEX
8
0
10
63.334098
20
116.800000
30
0.0
0
VERTEX
8
0
10
61.621293
20
119.766667
30
0.0
0
VERTEX
8
0
10
58.195681
20
119.766667
30
0.0
0
VERTEX
8
0
10
56.482875
20
116.800000
30
0.0
0
VERTEX
8
0
10
53.057264
20
116.800000
30
0.0
0
VERTEX
8
0
10
51.344458
20
119.766667
30
0.0
0
VERTEX
8
0
10
47.918846
20
119.766667
30
0.0
0
VERTEX
8
0
10
46.206040
20
122.733333
30
0.0
0
VERTEX
8
0
10
47.918846
20
125.700000
30
0.0
0
VERTEX
8
0
10
46.206040
20
128.666667
30
0.0
0
VERTEX
8
0
10
42.780429
20
128.666667
30
0.0
0
VERTEX
8
0
10
41.067623
20
125.700000
30
0.0
0
VERTEX
8
0
10
37.642011
20
125.700000
30
0.0
0
VERTEX
8
0
10
35.929206
20
128.666667
30
0.0
0
VERTEX
8
0
10
32.503594
20
128.666667
30
0.0
0
VERTEX
8
0
10
30.790788
20
125.700000
30
0.0
0
VERTEX
8
0
10
32.503594
20
122.733333
30
0.0
0
VERTEX
8
0
10
30.790788
20
119.766667
30
0.0
0
VERTEX
8
0
10
27.365177
20
119.766667
30
0.0
0
VERTEX
8
0
10
25.652371
20
116.800000
30
0.0
0
VERTEX
8
0
10
22.226759
20
116.800000
30
0.0
0
VERTEX
8
0
10
20.513954
20
119.766667
30
0.0
0
VERTEX
8
0
10
17.088342
20
119.766667
30
0.0
0
VERTEX
8
0
10
15.375536
20
122.733333
30
0.0
0
VERTEX
8
0
10
17.088342
20
125.700000
30
0.0
0
VERTEX
8
0
10
15.375536
20
128.666667
30
0.0
0
VERTEX
8
0
10
11.949925
20
128.666667
30
0.0
0
VERTEX
8
0
10
10.237119
20
131.633333
30
0.0
0
VERTEX
8
0
10
11.949925
20
134.600000
30
0.0
0
VERTEX
8
0
10
10.237119
20
137.566667
30
0.0
0
VERTEX
8
0
10
11.949925
20
140.533333
30
0.0
0
VERTEX
8
0
10
15.375536
20
140.533333
30
0.0
0
VERTEX
8
0
10
17.088342
20
143.500000
30
0.0
0
VERTEX
8
0
10
15.375536
20
146.466667
30
0.0
0
VERTEX
8
0
10
11.949925
20
146.466667
30
0.0
0
VERTEX
8
0
10
10.237119
20
149.433333
30
0.0
0
VERTEX
8
0
10
11.949925
20
152.400000
30
0.0
0
VERTEX
8
0
10
10.237119
20
155.366667
30
0.0
0
VERTEX
8
0
10
11.949925
20
158.333333
30
0.0
0
VERTEX
8
0
10
15.375536
20
158.333333
30
0.0
0
VERTEX
8
0
10
17.088342
20
161.300000
30
0.0
0
VERTEX
8
0
10
20.513954
20
161.300000
30
0.0
0
VERTEX
8
0
10
22.226759
20
158.333333
30
0.0
0
VERTEX
8
0
10
25.652371
20
158.333333
30
0.0
0
VERTEX
8
0
10
27.365177
20
161.300000
30
0.0
0
VERTEX
8
0
10
25.652371
20
164.266667
30
0.0
0
VERTEX
8
0
10
27.365177
20
167.233333
30
0.0
0
VERTEX
8
0
10
30.790788
20
167.233333
30
0.0
0
VERTEX
8
0
10
32.503594
20
170.200000
30
0.0
0
VERTEX
8
0
10
30.790788
20
173.166667
30
0.0
0
VERTEX
8
0
10
27.365177
20
173.166667
30
0.0
0
VERTEX
8
0
10
25.652371
20
176.133333
30
0.0
0
VERTEX
8
0
10
27.365177
20
179.100000
30
0.0
0
VERTEX
8
0
10
25.652371
20
182.066667
30
0.0
0
VERTEX
8
0
10
27.365177
20
185.033333
30
0.0
0
VERTEX
8
0
10
30.790788
20
185.033333
30
0.0
0
VERTEX
8
0
10
32.503594
20
188.000000
30
0.0
0
VERTEX
8
0
10
35.929206
20
188.000000
30
0.0
0
VERTEX
8
0
10
37.642011
20
185.033333
30
0.0
0
VERTEX
8
0
10
41.067623
20
185.033333
30
0.0
0
VERTEX
8
0
10
42.780429
20
188.000000
30
0.0
0
VERTEX
8
0
10
46.206040
20
188.000000
30
0.0
0
VERTEX
8
0
10
47.918846
20
185.033333
30
0.0
0
VERTEX
8
0
10
51.344458
20
185.033333
30
0.0
0
VERTEX
8
0
10
53.057264
20
182.066667
30
0.0
0
VERTEX
8
0
10
51.344458
20
179.100000
30
0.0
0
VERTEX
8
0
10
53.057264
20
176.133333
30
0.0
0
VERTEX
8
0
10
56.482875
20
176.133333
30
0.0
0
VERTEX
8
0
10
58.195681
20
179.100000
30
0.0
0
VERTEX
8
0
10
56.482875
20
182.066667
30
0.0
0
VERTEX
8
0
10
58.195681
20
185.033333
30
0.0
0
VERTEX
8
0
10
61.621293
20
185.033333
30
0.0
0
VERTEX
8
0
10
63.334098
20
188.000000
30
0.0
0
VERTEX
8
0
10
66.759710
20
188.000000
30
0.0
0
VERTEX
8
0
10
68.472516
20
185.033333
30
0.0
0
VERTEX
8
0
10
71.898127
20
185.033333
30
0.0
0
VERTEX
8
0
10
73.610933
20
188.000000
30
0.0
0
VERTEX
8
0
10
71.898127
20
190.966667
30
0.0
0
VERTEX
8
0
10
73.610933
20
193.933333
30
0.0
0
VERTEX
8
0
10
77.036545
20
193.933333
30
0.0
0
VERTEX
8
0
10
78.749351
20
196.900000
30
0.0
0
VERTEX
8
0
10
77.036545
20
199.866667
30
0.0
0
VERTEX
8
0
10
73.610933
20
199.866667
30
0.0
0
VERTEX
8
0
10
71.898127
20
196.900000
30
0.0
0
VERTEX
8
0
10
68.472516
20
196.900000
30
0.0
0
VERTEX
8
0
10
66.759710
20
199.866667
30
0.0
0
VERTEX
8
0
10
63.334098
20
199.866667
30
0.0
0
VERTEX
8
0
10
61.621293
20
202.833333
30
0.0
0
VERTEX
8
0
10
63.334098
20
205.800000
30
0.0
0
VERTEX
8
0
10
61.621293
20
208.766667
30
0.0
0
VERTEX
8
0
10
58.195681
20
208.766667
30
0.0
0
VERTEX
8
0
10
56.482875
20
211.733333
30
0.0
0
VERTEX
8
0
10
58.195681
20
214.700000
30
0.0
0
VERTEX
8
0
10
56.482875
20
217.666667
30
0.0
0
VERTEX
8
0
10
58.195681
20
220.633333
30
0.0
0
VERTEX
8
0
10
61.621293
20
220.633333
30
0.0
0
VERTEX
8
0
10
63.334098
20
223.600000
30
0.0
0
VERTEX
8
0
10
61.621293
20
226.566667
30
0.0
0
VERTEX
8
0
10
58.195681
20
226.566667
30
0.0
0
VERTEX
8
0
10
56.482875
20
229.533333
30
0.0
0
VERTEX
8
0
10
58.195681
20
232.500000
30
0.0
0
VERTEX
8
0
10
56.482875
20
235.466667
30
0.0
0
VERTEX
8
0
10
58.195681
20
238.433333
30
0.0
0
VERTEX
8
0
10
61.621293
20
238.433333
30
0.0
0
VERTEX
8
0
10
63.334098
20
241.400000
30
0.0
0
VERTEX
8
0
10
66.759710
20
241.400000
30
0.0
0
VERTEX
8
0
10
68.472516
20
238.433333
30
0.0
0
VERTEX
8
0
10
71.898127
20
238.433333
30
0.0
0
VERTEX
8
0
10
73.610933
20
241.400000
30
0.0
0
VERTEX
8
0
10
71.898127
20
244.366667
30
0.0
0
VERTEX
8
0
10
73.610933
20
247.333333
30
0.0
0
VERTEX
8
0
10
77.036545
20
247.333333
30
0.0
0
VERTEX
8
0
10
78.749351
20
250.300000
30
0.0
0
VERTEX
8
0
10
77.036545
20
253.266667
30
0.0
0
VERTEX
8
0
10
73.610933
20
253.266667
30
0.0
0
VERTEX
8
0
10
71.898127
20
250.300000
30
0.0
0
VERTEX
8
0
10
68.472516
20
250.300000
30
0.0
0
VERTEX
8
0
10
66.759710
20
253.266667
30
0.0
0
VERTEX
8
0
10
63.334098
20
253.266667
30
0.0
0
VERTEX
8
0
10
61.621293
20
256.233333
30
0.0
0
VERTEX
8
0
10
63.334098
20
259.200000
30
0.0
0
VERTEX
8
0
10
61.621293
20
262.166667
30
0.0
0
VERTEX
8
0
10
58.195681
20
262.166667
30
0.0
0
VERTEX
8
0
10
56.482875
20
265.133333
30
0.0
0
VERTEX
8
0
10
58.195681
20
268.100000
30
0.0
0
VERTEX
8
0
10
56.482875
20
271.066667
30
0.0
0
VERTEX
8
0
10
58.195681
20
274.033333
30
0.0
0
VERTEX
8
0
10
61.621293
20
274.033333
30
0.0
0
VERTEX
8
0
10
63.334098
20
277.000000
30
0.0
0
VERTEX
8
0
10
61.621293
20
279.966667
30
0.0
0
VERTEX
8
0
10
58.195681
20
279.966667
30
0.0
0
VERTEX
8
0
10
56.482875
20
277.000000
30
0.0
0
VERTEX
8
0
10
53.057264
20
277.000000
30
0.0
0
VERTEX
8
0
10
51.344458
20
279.966667
30
0.0
0
VERTEX
8
0
10
47.918846
20
279.966667
30
0.0
0
VERTEX
8
0
10
46.206040
20
282.933333
30
0.0
0
VERTEX
8
0
10
47.918846
20
285.900000
30
0.0
0
VERTEX
8
0
10
46.206040
20
288.866667
30
0.0
0
VERTEX
8
0
10
42.780429
20
288.866667
30
0.0
0
VERTEX
8
0
10
41.067623
20
285.900000
30
0.0
0
VERTEX
8
0
10
37.642011
20
285.900000
30
0.0
0
VERTEX
8
0
10
35.929206
20
288.866667
30
0.0
0
VERTEX
8
0
10
32.503594
20
288.866667
30
0.0
0
VERTEX
8
0
10
30.790788
20
285.900000
30
0.0
0
VERTEX
8
0
10
32.503594
20
282.933333
30
0.0
0
VERTEX
8
0
10
30.790788
20
279.966667
30
0.0
0
VERTEX
8
0
10
27.365177
20
279.966667
30
0.0
0
VERTEX
8
0
10
25.652371
20
282.933333
30
0.0
0
VERTEX
8
0
10
27.365177
20
285.900000
30
0.0
0
VERTEX
8
0
10
25.652371
20
288.866667
30
0.0
0
VERTEX
8
0
10
27.365177
20
291.833333
30
0.0
0
VERTEX
8
0
10
30.790788
20
291.833333
30
0.0
0
VERTEX
8
0
10
32.503594
20
294.800000
30
0.0
0
VERTEX
8
0
10
35.929206
20
294.800000
30
0.0
0
VERTEX
8
0
10
37.642011
20
291.833333
30
0.0
0
VERTEX
8
0
10
41.067623
20
291.833333
30
0.0
0
VERTEX
8
0
10
42.780429
20
294.800000
30
0.0
0
VERTEX
8
0
10
46.206040
20
294.800000
30
0.0
0
VERTEX
8
0
10
47.918846
20
291.833333
30
0.0
0
VERTEX
8
0
10
51.344458
20
291.833333
30
0.0
0
VERTEX
8
0
10
53.057264
20
288.866667
30
0.0
0
VERTEX
8
0
10
51.344458
20
285.900000
30
0.0
0
VERTEX
8
0
10
53.057264
20
282.933333
30
0.0
0
VERTEX
8
0
10
56.482875
20
282.933333
30
0.0
0
VERTEX
8
0
10
58.195681
20
285.900000
30
0.0
0
VERTEX
8
0
10
61.621293
20
285.900000
30
0.0
0
VERTEX
8
0
10
63.334098
20
282.933333
30
0.0
0
VERTEX
8
0
10
66.759710
20
282.933333
30
0.0
0
VERTEX
8
0
10
68.472516
20
279.966667
30
0.0
0
VERTEX
8
0
10
66.759710
20
277.000000
30
0.0
0
VERTEX
8
0
10
68.472516
20
274.033333
30
0.0
0
VERTEX
8
0
10
66.759710
20
271.066667
30
0.0
0
VERTEX
8
0
10
63.334098
20
271.066667
30
0.0
0
VERTEX
8
0
10
61.621293
20
268.100000
30
0.0
0
VERTEX
8
0
10
63.334098
20
265.133333
30
0.0
0
VERTEX
8
0
10
66.759710
20
265.133333
30
0.0
0
VERTEX
8
0
10
68.472516
20
262.166667
30
0.0
0
VERTEX
8
0
10
66.759710
20
259.200000
30
0.0
0
VERTEX
8
0
10
68.472516
20
256.233333
30
0.0
0
VERTEX
8
0
10
71.898127
20
256.233333
30
0.0
0
VERTEX
8
0
10
73.610933
20
259.200000
30
0.0
0
VERTEX
8
0
10
77.036545
20
259.200000
30
0.0
0
VERTEX
8
0
10
78.749351
20
256.233333
30
0.0
0
VERTEX
8
0
10
82.174962
20
256.233333
30
0.0
0
VERTEX
8
0
10
83.887768
20
253.266667
30
0.0
0
VERTEX
8
0
10
82.174962
20
250.300000
30
0.0
0
VERTEX
8
0
10
83.887768
20
247.333333
30
0.0
0
VERTEX
8
0
10
82.174962
20
244.366667
30
0.0
0
VERTEX
8
0
10
78.749351
20
244.366667
30
0.0
0
VERTEX
8
0
10
77.036545
20
241.400000
30
0.0
0
VERTEX
8
0
10
78.749351
20
238.433333
30
0.0
0
VERTEX
8
0
10
77.036545
20
235.466667
30
0.0
0
VERTEX
8
0
10
73.610933
20
235.466667
30
0.0
0
VERTEX
8
0
10
71.898127
20
232.500000
30
0.0
0
VERTEX
8
0
10
68.472516
20
232.500000
30
0.0
0
VERTEX
8
0
10
66.759710
20
235.466667
30
0.0
0
VERTEX
8
0
10
63.334098
20
235.466667
30
0.0
0
VERTEX
8
0
10
61.621293
20
232.500000
30
0.0
0
VERTEX
8
0
10
63.334098
20
229.533333
30
0.0
0
VERTEX
8
0
10
66.759710
20
229.533333
30
0.0
0
VERTEX
8
0
10
68.472516
20
226.566667
30
0.0
0
VERTEX
8
0
10
66.759710
20
223.600000
30
0.0
0
VERTEX
8
0
10
68.472516
20
220.633333
30
0.0
0
VERTEX
8
0
10
66.759710
20
217.666667
30
0.0
0
VERTEX
8
0
10
63.334098
20
217.666667
30
0.0
0
VERTEX
8
0
10
61.621293
20
214.700000
30
0.0
0
VERTEX
8
0
10
63.334098
20
211.733333
30
0.0
0
VERTEX
8
0
10
66.759710
20
211.733333
30
0.0
0
VERTEX
8
0
10
68.472516
20
208.766667
30
0.0
0
VERTEX
8
0
10
66.759710
20
205.800000
30
0.0
0
VERTEX
8
0
10
68.472516
20
202.833333
30
0.0
0
VERTEX
8
0
10
71.898127
20
202.833333
30
0.0
0
VERTEX
8
0
10
73.610933
20
205.800000
30
0.0
0
VERTEX
8
0
10
77.036545
20
205.800000
30
0.0
0
VERTEX
8
0
10
78.749351
20
202.833333
30
0.0
0
VERTEX
8
0
10
82.174962
20
202.833333
30
0.0
0
VERTEX
8
0
10
83.887768
20
199.866667
30
0.0
0
VERTEX
8
0
10
82.174962
20
196.900000
30
0.0
0
VERTEX
8
0
10
83.887768
20
193.933333
30
0.0
0
VERTEX
8
0
10
82.174962
20
190.966667
30
0.0
0
VERTEX
8
0
10
78.749351
20
190.966667
30
0.0
0
VERTEX
8
0
10
77.036545
20
188.000000
30
0.0
0
VERTEX
8
0
10
78.749351
20
185.033333
30
0.0
0
VERTEX
8
0
10
77.036545
20
182.066667
30
0.0
0
VERTEX
8
0
10
73.610933
20
182.066667
30
0.0
0
VERTEX
8
0
10
71.898127
20
179.100000
30
0.0
0
VERTEX
8
0
10
68.472516
20
179.100000
30
0.0
0
VERTEX
8
0
10
66.759710
20
182.066667
30
0.0
0
VERTEX
8
0
10
63.334098
20
182.066667
30
0.0
0
VERTEX
8
0
10
61.621293
20
179.100000
30
0.0
0
VERTEX
8
0
10
63.334098
20
176.133333
30
0.0
0
VERTEX
8
0
10
61.621293
20
173.166667
30
0.0
0
VERTEX
8
0
10
58.195681
20
173.166667
30
0.0
0
VERTEX
8
0
10
56.482875
20
170.200000
30
0.0
0
VERTEX
8
0
10
53.057264
20
170.200000
30
0.0
0
VERTEX
8
0
10
51.344458
20
173.166667
30
0.0
0
VERTEX
8
0
10
47.918846
20
173.166667
30
0.0
0
VERTEX
8
0
10
46.206040
20
176.133333
30
0.0
0
VERTEX
8
0
10
47.918846
20
179.100000
30
0.0
0
VERTEX
8
0
10
46.206040
20
182.066667
30
0.0
0
VERTEX
8
0
10
42.780429
20
182.066667
30
0.0
0
VERTEX
8
0
10
41.067623
20
179.100000
30
0.0
0
VERTEX
8
0
10
37.642011
20
179.100000
30
0.0
0
VERTEX
8
0
10
35.929206
20
182.066667
30
0.0
0
VERTEX
8
0
10
32.503594
20
182.066667
30
0.0
0
VERTEX
8
0
10
30.790788
20
179.100000
30
0.0
0
VERTEX
8
0
10
32.503594
20
176.133333
30
0.0
0
VERTEX
8
0
10
35.929206
20
176.133333
30
0.0
0
VERTEX
8
0
10
37.642011
20
173.166667
30
0.0
0
VERTEX
8
0
10
35.929206
20
170.200000
30
0.0
0
VERTEX
8
0
10
37.642011
20
167.233333
30
0.0
0
VERTEX
8
0
10
35.929206
20
164.266667
30
0.0
0
VERTEX
8
0
10
32.503594
20
164.266667
30
0.0
0
VERTEX
8
0
10
30.790788
20
161.300000
30
0.0
0
VERTEX
8
0
10
32.503594
20
158.333333
30
0.0
0
VERTEX
8
0
10
30.790788
20
155.366667
30
0.0
0
VERTEX
8
0
10
27.365177
20
155.366667
30
0.0
0
VERTEX
8
0
10
25.652371
20
152.400000
30
0.0
0
VERTEX
8
0
10
22.226759
20
152.400000
30
0.0
0
VERTEX
8
0
10
20.513954
20
155.366667
30
0.0
0
SEQEND
8
0
0
POLYLINE
8
0
66
1
70
1
10
0.0
20
0.0
30
0.0
0
VERTEX
8
0
10
89.026185
20
226.566667
30
0.0
0
VERTEX
8
0
10
87.313380
20
223.600000
30
0.0
0
VERTEX
8
0
10
89.026185
20
220.633333
30
0.0
0
VERTEX
8
0
10
92.451797
20
220.633333
30
0.0
0
VERTEX
8
0
10
94.164603
20
217.666667
30
0.0
0
VERTEX
8
0
10
92.451797
20
214.700000
30
0.0
0
VERTEX
8
0
10
94.164603
20
211.733333
30
0.0
0
VERTEX
8
0
10
97.590214
20
211.733333
30
0.0
0
VERTEX
8
0
10
99.303020
20
214.700000
30
0.0
0
VERTEX
8
0
10
102.728632
20
214.700000
30
0.0
0
VERTEX
8
0
10
104.441438
20
211.733333
30
0.0
0
VERTEX
8
0
10
107.867049
20
211.733333
30
0.0
0
VERTEX
8
0
10
109.579855
20
208.766667
30
0.0
0
VERTEX
8
0
10
107.867049
20
205.800000
30
0.0
0
VERTEX
8
0
10
109.579855
20
202.833333
30
0.0
0
VERTEX
8
0
10
107.867049
20
199.866667
30
0.0
0
VERTEX
8
0
10
104.441438
20
199.866667
30
0.0
0
VERTEX
8
0
10
102.728632
20
196.900000
30
0.0
0
VERTEX
8
0
10
104.441438
20
193.933333
30
0.0
0
VERTEX
8
0
10
107.867049
20
193.933333
30
0.0
0
VERTEX
8
0
10
109.579855
20
190.966667
30
0.0
0
VERTEX
8
0
10
107.867049
20
188.000000
30
0.0
0
VERTEX
8
0
10
109.579855
20
185.033333
30
0.0
0
VERTEX
8
0
10
107.867049
20
182.066667
30
0.0
0
VERTEX
8
0
10
104.441438
20
182.066667
30
0.0
0
VERTEX
8
0
10
102.728632
20
179.100000
30
0.0
0
VERTEX
8
0
10
104.441438
20
176.133333
30
0.0
0
VERTEX
8
0
10
102.728632
20
173.166667
30
0.0
0
VERTEX
8
0
10
99.303020
20
173.166667
30
0.0
0
VERTEX
8
0
10
97.590214
20
170.200000
30
0.0
0
VERTEX
8
0
10
94.164603
20
170.200000
30
0.0
0
VERTEX
8
0
10
92.451797
20
173.166667
30
0.0
0
VERTEX
8
0
10
89.026185
20
173.166667
30
0.0
0
VERTEX
8
0
10
87.313380
20
170.200000
30
0.0
0
VERTEX
8
0
10
89.026185
20
167.233333
30
0.0
0
VERTEX
8
0
10
92.451797
20
167.233333
30
0.0
0
VERTEX
8
0
10
94.164603
20
164.266667
30
0.0
0
VERTEX
8
0
10
92.451797
20
161.300000
30
0.0
0
VERTEX
8
0
10
94.164603
20
158.333333
30
0.0
0
VERTEX
8
0
10
97.590214
20
158.333333
30
0.0
0
VERTEX
8
0
10
99.303020
20
161.300000
30
0.0
0
VERTEX
8
0
10
102.728632
20
161.300000
30
0.0
0
VERTEX
8
0
10
104.441438
20
158.333333
30
0.0
0
VERTEX
8
0
10
107.867049
20
158.333333
30
0.0
0
VERTEX
8
0
10
109.579855
20
155.366667
30
0.0
0
VERTEX
8
0
10
107.867049
20
152.400000
30
0.0
0
VERTEX
8
0
10
109.579855
20
149.433333
30
0.0
0
VERTEX
8
0
10
113.005467
20
149.433333
30
0.0
0
VERTEX
8
0
10
114.718272
20
152.400000
30
0.0
0
VERTEX
8
0
10
113.005467
20
155.366667
30
0.0
0
VERTEX
8
0
10
114.718272
20
158.333333
30
0.0
0
VERTEX
8
0
10
118.143884
20
158.333333
30
0.0
0
VERTEX
8
0
10
119.856690
20
161.300000
30
0.0
0
VERTEX
8
0
10
123.282301
20
161.300000
30
0.0
0
VERTEX
8
0
10
124.995107
20
158.333333
30
0.0
0
VERTEX
8
0
10
128.420719
20
158.333333
30
0.0
0
VERTEX
8
0
10
130.133525
20
161.300000
30
0.0
0
VERTEX
8
0
10
133.559136
20
161.300000
30
0.0
0
VERTEX
8
0
10
135.271942
20
158.333333
30
0.0
0
VERTEX
8
0
10
138.697554
20
158.333333
30
0.0
0
VERTEX
8
0
10
140.410359
20
155.366667
30
0.0
0
VERTEX
8
0
10
138.697554
20
152.400000
30
0.0
0
VERTEX
8
0
10
140.410359
20
149.433333
30
0.0
0
VERTEX
8
0
10
138.697554
20
146.466667
30
0.0
0
VERTEX
8
0
10
135.271942
20
146.466667
30
0.0
0
VERTEX
8
0
10
133.559136
20
143.500000
30
0.0
0
VERTEX
8
0
10
135.271942
20
140.533333
30
0.0
0
VERTEX
8
0
10
138.697554
20
140.533333
30
0.0
0
VERTEX
8
0
10
140.410359
20
137.566667
30
0.0
0
VERTEX
8
0
10
138.697554
20
134.600000
30
0.0
0
VERTEX
8
0
10
140.410359
20
131.633333
30
0.0
0
VERTEX
8
0
10
143.835971
20
131.633333
30
0.0
0
VERTEX
8
0
10
145.548777
20
134.600000
30
0.0
0
VERTEX
8
0
10
148.974388
20
134.600000
30
0.0
0
VERTEX
8
0
10
150.687194
20
131.633333
30
0.0
0
VERTEX
8
0
10
154.112806
20
131.633333
30
0.0
0
VERTEX
8
0
10
155.825612
20
128.666667
30
0.0
0
VERTEX
8
0
10
154.112806
20
125.700000
30
0.0
0
VERTEX
8
0
10
155.825612
20
122.733333
30
0.0
0
VERTEX
8
0
10
154.112806
20
119.766667
30
0.0
0
VERTEX
8
0
10
150.687194
20
119.766667
30
0.0
0
VERTEX
8
0
10
148.974388
20
116.800000
30
0.0
0
VERTEX
8
0
10
150.687194
20
113.833333
30
0.0
0
VERTEX
8
0
10
154.112806
20
113.833333
30
0.0
0
VERTEX
8
0
10
155.825612
20
110.866667
30
0.0
0
VERTEX
8
0
10
154.112806
20
107.900000
30
0.0
0
VERTEX
8
0
10
155.825612
20
104.933333
30
0.0
0
VERTEX
8
0
10
154.112806
20
101.966667
30
0.0
0
VERTEX
8
0
10
150.687194
20
101.966667
30
0.0
0
VERTEX
8
0
10
148.974388
20
99.000000
30
0.0
0
VERTEX
8
0
10
150.687194
20
96.033333
30
0.0
0
VERTEX
8
0
10
148.974388
20
93.066667
30
0.0
0
VERTEX
8
0
10
145.548777
20
93.066667
30
0.0
0
VERTEX
8
0
10
143.835971
20
90.100000
30
0.0
0
VERTEX
8
0
10
140.410359
20
90.100000
30
0.0
0
VERTEX
8
0
10
138.697554
20
93.066667
30
0.0
0
VERTEX
8
0
10
135.271942
20
93.066667
30
0.0
0
VERTEX
8
0
10
133.559136
20
90.100000
30
0.0
0
VERTEX
8
0
10
135.271942
20
87.133333
30
0.0
0
VERTEX
8
0
10
138.697554
20
87.133333
30
0.0
0
VERTEX
8
0
10
140.410359
20
84.166667
30
0.0
0
VERTEX
8
0
10
138.697554
20
81.200000
30
0.0
0
VERTEX
8
0
10
140.410359
20
78.233333
30
0.0
0
VERTEX
8
0
10
143.835971
20
78.233333
30
0.0
0
VERTEX
8
0
10
145.548777
20
81.200000
30
0.0
0
VERTEX
8
0
10
148.974388
20
81.200000
30
0.0
0
VERTEX
8
0
10
150.687194
20
78.233333
30
0.0
0
VERTEX
8
0
10
154.112806
20
78.233333
30
0.0
0
VERTEX
8
0
10
155.825612
20
75.266667
30
0.0
0
VERTEX
8
0
10
154.112806
20
72.300000
30
0.0
0
VERTEX
8
0
10
155.825612
20
69.333333
30
0.0
0
VERTEX
8
0
10
159.251223
20
69.333333
30
0.0
0
VERTEX
8
0
10
160.964029
20
72.300000
30
0.0
0
VERTEX
8
0
10
159.251223
20
75.266667
30
0.0
0
VERTEX
8
0
10
160.964029
20
78.233333
30
0.0
0
VERTEX
8
0
10
164.389641
20
78.233333
30
0.0
0
VERTEX
8
0
10
166.102446
20
81.200000
30
0.0
0
VERTEX
8
0
10
169.528058
20
81.200000
30
0.0
0
VERTEX
8
0
10
171.240864
20
78.233333
30
0.0
0
VERTEX
8
0
10
174.666475
20
78.233333
30
0.0
0
VERTEX
8
0
10
176.379281
20
81.200000
30
0.0
0
VERTEX
8
0
10
179.804893
20
81.200000
30
0.0
0
VERTEX
8
0
10
181.517699
20
78.233333
30
0.0
0
VERTEX
8
0
10
184.943310
20
78.233333
30
0.0
0
VERTEX
8
0
10
186.656116
20
75.266667
30
0.0
0
VERTEX
8
0
10
184.943310
20
72.300000
30
0.0
0
VERTEX
8
0
10
186.656116
20
69.333333
30
0.0
0
VERTEX
8
0
10
190.081728
20
69.333333
30
0.0
0
VERTEX
8
0
10
191.794533
20
72.300000
30
0.0
0
VERTEX
8
0
10
190.081728
20
75.266667
30
0.0
0
VERTEX
8
0
10
191.794533
20
78.233333
30
0.0
0
VERTEX
8
0
10
195.220145
20
78.233333
30
0.0
0
VERTEX
8
0
10
196.932951
20
81.200000
30
0.0
0
VERTEX
8
0
10
195.220145
20
84.166667
30
0.0
0
VERTEX
8
0
10
191.794533
20
84.166667
30
0.0
0
VERTEX
8
0
10
190.081728
20
87.133333
30
0.0
0
VERTEX
8
0
10
191.794533
20
90.100000
30
0.0
0
VERTEX
8
0
10
190.081728
20
93.066667
30
0.0
0
VERTEX
8
0
10
191.794533
20
96.033333
30
0.0
0
VERTEX
8
0
10
195.220145
20
96.033333
30
0.0
0
VERTEX
8
0
10
196.932951
20
99.000000
30
0.0
0
VERTEX
8
0
10
200.358562
20
99.000000
30
0.0
0
VERTEX
8
0
10
202.071368
20
96.033333
30
0.0
0
VERTEX
8
0
10
205.496980
20
96.033333
30
0.0
0
VERTEX
8
0
10
207.209786
20
99.000000
30
0.0
0
VERTEX
8
0
10
205.496980
20
101.966667
30
0.0
0
VERTEX
8
0
10
207.209786
20
104.933333
30
0.0
0
VERTEX
8
0
10
210.635397
20
104.933333
30
0.0
0
VERTEX
8
0
10
212.348203
20
107.900000
30
0.0
0
VERTEX
8
0
10
215.773815
20
107.900000
30
0.0
0
VERTEX
8
0
10
217.486620
20
104.933333
30
0.0
0
VERTEX
8
0
10
220.912232
20
104.933333
30
0.0
0
VERTEX
8
0
10
222.625038
20
107.900000
30
0.0
0
VERTEX
8
0
10
226.050649
20
107.900000
30
0.0
0
VERTEX
8
0
10
227.763455
20
104.933333
30
0.0
0
VERTEX
8
0
10
231.189067
20
104.933333
30
0.0
0
VERTEX
8
0
10
232.901873
20
101.966667
30
0.0
0
VERTEX
8
0
10
231.189067
20
99.000000
30
0.0
0
VERTEX
8
0
10
232.901873
20
96.033333
30
0.0
0
VERTEX
8
0
10
231.189067
20
93.066667
30
0.0
0
VERTEX
8
0
10
227.763455
20
93.066667
30
0.0
0
VERTEX
8
0
10
226.050649
20
90.100000
30
0.0
0
VERTEX
8
0
10
227.763455
20
87.133333
30
0.0
0
VERTEX
8
0
10
231.189067
20
87.133333
30
0.0
0
VERTEX
8
0
10
232.901873
20
84.166667
30
0.0
0
VERTEX
8
0
10
231.189067
20
81.200000
30
0.0
0
VERTEX
8
0
10
232.901873
20
78.233333
30
0.0
0
VERTEX
8
0
10
236.327484
20
78.233333
30
0.0
0
VERTEX
8
0
10
238.040290
20
81.200000
30
0.0
0
VERTEX
8
0
10
241.465902
20
81.200000
30
0.0
0
VERTEX
8
0
10
243.178707
20
78.233333
30
0.0
0
VERTEX
8
0
10
246.604319
20
78.233333
30
0.0
0
VERTEX
8
0
10
248.317125
20
75.266667
30
0.0
0
VERTEX
8
0
10
246.604319
20
72.300000
30
0.0
0
VERTEX
8
0
10
248.317125
20
69.333333
30
0.0
0
VERTEX
8
0
10
251.742736
20
69.333333
30
0.0
0
VERTEX
8
0
10
253.455542
20
72.300000
30
0.0
0
VERTEX
8
0
10
251.742736
20
75.266667
30
0.0
0
VERTEX
8
0
10
253.455542
20
78.233333
30
0.0
0
VERTEX
8
0
10
256.881154
20
78.233333
30
0.0
0
VERTEX
8
0
10
258.593960
20
81.200000
30
0.0
0
VERTEX
8
0
10
262.019571
20
81.200000
30
0.0
0
VERTEX
8
0
10
263.732377
20
78.233333
30
0.0
0
VERTEX
8
0
10
267.157989
20
78.233333
30
0.0
0
VERTEX
8
0
10
268.870794
20
81.200000
30
0.0
0
VERTEX
8
0
10
272.296406
20
81.200000
30
0.0
0
VERTEX
8
0
10
274.009212
20
78.233333
30
0.0
0
VERTEX
8
0
10
277.434823
20
78.233333
30
0.0
0
VERTEX
8
0
10
279.147629
20
75.266667
30
0.0
0
VERTEX
8
0
10
277.434823
20
72.300000
30
0.0
0
VERTEX
8
0
10
279.147629
20
69.333333
30
0.0
0
VERTEX
8
0
10
277.434823
20
66.366667
30
0.0
0
VERTEX
8
0
10
274.009212
20
66.366667
30
0.0
0
VERTEX
8
0
10
272.296406
20
63.400000
30
0.0
0
VERTEX
8
0
10
274.009212
20
60.433333
30
0.0
0
VERTEX
8
0
10
277.434823
20
60.433333
30
0.0
0
VERTEX
8
0
10
279.147629
20
57.466667
30
0.0
0
VERTEX
8
0
10
277.434823
20
54.500000
30
0.0
0
VERTEX
8
0
10
279.147629
20
51.533333
30
0.0
0
VERTEX
8
0
10
282.573241
20
51.533333
30
0.0
0
VERTEX
8
0
10
284.286046
20
54.500000
30
0.0
0
VERTEX
8
0
10
287.711658
20
54.500000
30
0.0
0
VERTEX
8
0
10
289.424464
20
51.533333
30
0.0
0
VERTEX
8
0
10
292.850075
20
51.533333
30
0.0
0
VERTEX
8
0
10
294.562881
20
48.566667
30
0.0
0
VERTEX
8
0
10
292.850075
20
45.600000
30
0.0
0
VERTEX
8
0
10
294.562881
20
42.633333
30
0.0
0
VERTEX
8
0
10
292.850075
20
39.666667
30
0.0
0
VERTEX
8
0
10
289.424464
20
39.666667
30
0.0
0
VERTEX
8
0
10
287.711658
20
36.700000
30
0.0
0
VERTEX
8
0
10
289.424464
20
33.733333
30
0.0
0
VERTEX
8
0
10
292.850075
20
33.733333
30
0.0
0
VERTEX
8
0
10
294.562881
20
30.766667
30
0.0
0
VERTEX
8
0
10
292.850075
20
27.800000
30
0.0
0
VERTEX
8
0
10
294.562881
20
24.833333
30
0.0
0
VERTEX
8
0
10
292.850075
20
21.866667
30
0.0
0
VERTEX
8
0
10
289.424464
20
21.866667
30
0.0
0
VERTEX
8
0
10
287.711658
20
18.900000
30
0.0
0
VERTEX
8
0
10
289.424464
20
15.933333
30
0.0
0
VERTEX
8
0
10
287.711658
20
12.966667
30
0.0
0
VERTEX
8
0
10
284.286046
20
12.966667
30
0.0
0
VERTEX
8
0
10
282.573241
20
10.000000
30
0.0
0
VERTEX
8
0
10
279.147629
20
10.000000
30
0.0
0
VERTEX
8
0
10
277.434823
20
12.966667
30
0.0
0
VERTEX
8
0
10
274.009212
20
12.966667
30
0.0
0
VERTEX
8
0
10
272.296406
20
15.933333
30
0.0
0
VERTEX
8
0
10
274.009212
20
18.900000
30
0.0
0
VERTEX
8
0
10
277.434823
20
18.900000
30
0.0
0
VERTEX
8
0
10
279.147629
20
15.933333
30
0.0
0
VERTEX
8
0
10
282.573241
20
15.933333
30
0.0
0
VERTEX
8
0
10
284.286046
20
18.900000
30
0.0
0
VERTEX
8
0
10
282.573241
20
21.866667
30
0.0
0
VERTEX
8
0
10
284.286046
20
24.833333
30
0.0
0
VERTEX
8
0
10
287.711658
20
24.833333
30
0.0
0
VERTEX
8
0
10
289.424464
20
27.800000
30
0.0
0
VERTEX
8
0
10
287.711658
20
30.766667
30
0.0
0
VERTEX
8
0
10
284.286046
20
30.766667
30
0.0
0
VERTEX
8
0
10
282.573241
20
33.733333
30
0.0
0
VERTEX
8
0
10
284.286046
20
36.700000
30
0.0
0
VERTEX
8
0
10
282.573241
20
39.666667
30
0.0
0
VERTEX
8
0
10
284.286046
20
42.633333
30
0.0
0
VERTEX
8
0
10
287.711658
20
42.633333
30
0.0
0
VERTEX
8
0
10
289.424464
20
45.600000
30
0.0
0
VERTEX
8
0
10
287.711658
20
48.566667
30
0.0
0
VERTEX
8
0
10
284.286046
20
48.566667
30
0.0
0
VERTEX
8
0
10
282.573241
20
45.600000
30
0.0
0
VERTEX
8
0
10
279.147629
20
45.600000
30
0.0
0
VERTEX
8
0
10
277.434823
20
48.566667
30
0.0
0
VERTEX
8
0
10
274.009212
20
48.566667
30
0.0
0
VERTEX
8
0
10
272.296406
20
51.533333
30
0.0
0
VERTEX
8
0
10
274.009212
20
54.500000
30
0.0
0
VERTEX
8
0
10
272.296406
20
57.466667
30
0.0
0
VERTEX
8
0
10
268.870794
20
57.466667
30
0.0
0
VERTEX
8
0
10
267.157989
20
60.433333
30
0.0
0
VERTEX
8
0
10
268.870794
20
63.400000
30
0.0
0
VERTEX
8
0
10
267.157989
20
66.366667
30
0.0
0
VERTEX
8
0
10
268.870794
20
69.333333
30
0.0
0
VERTEX
8
0
10
272.296406
20
69.333333
30
0.0
0
VERTEX
8
0
10
274.009212
20
72.300000
30
0.0
0
VERTEX
8
0
10
272.296406
20
75.266667
30
0.0
0
VERTEX
8
0
10
268.870794
20
75.266667
30
0.0
0
VERTEX
8
0
10
267.157989
20
72.300000
30
0.0
0
VERTEX
8
0
10
263.732377
20
72.300000
30
0.0
0
VERTEX
8
0
10
262.019571
20
75.266667
30
0.0
0
VERTEX
8
0
10
258.593960
20
75.266667
30
0.0
0
VERTEX
8
0
10
256.881154
20
72.300000
30
0.0
0
VERTEX
8
0
10
258.593960
20
69.333333
30
0.0
0
VERTEX
8
0
10
256.881154
20
66.366667
30
0.0
0
VERTEX
8
0
10
253.455542
20
66.366667
30
0.0
0
VERTEX
8
0
10
251.742736
20
63.400000
30
0.0
0
VERTEX
8
0
10
248.317125
20
63.400000
30
0.0
0
VERTEX
8
0
10
246.604319
20
66.366667
30
0.0
0
VERTEX
8
0
10
243.178707
20
66.366667
30
0.0
0
VERTEX
8
0
10
241.465902
20
69.333333
30
0.0
0
VERTEX
8
0
10
243.178707
20
72.300000
30
0.0
0
VERTEX
8
0
10
241.465902
20
75.266667
30
0.0
0
VERTEX
8
0
10
238.040290
20
75.266667
30
0.0
0
VERTEX
8
0
10
236.327484
20
72.300000
30
0.0
0
VERTEX
8
0
10
232.901873
20
72.300000
30
0.0
0
VERTEX
8
0
10
231.189067
20
75.266667
30
0.0
0
VERTEX
8
0
10
227.763455
20
75.266667
30
0.0
0
VERTEX
8
0
10
226.050649
20
78.233333
30
0.0
0
VERTEX
8
0
10
227.763455
20
81.200000
30
0.0
0
VERTEX
8
0
10
226.050649
20
84.166667
30
0.0
0
VERTEX
8
0
10
222.625038
20
84.166667
30
0.0
0
VERTEX
8
0
10
220.912232
20
87.133333
30
0.0
0
VERTEX
8
0
10
222.625038
20
90.100000
30
0.0
0
VERTEX
8
0
10
220.912232
20
93.066667
30
0.0
0
VERTEX
8
0
10
222.625038
20
96.033333
30
0.0
0
VERTEX
8
0
10
226.050649
20
96.033333
30
0.0
0
VERTEX
8
0
10
227.763455
20
99.000000
30
0.0
0
VERTEX
8
0
10
226.050649
20
101.966667
30
0.0
0
VERTEX
8
0
10
222.625038
20
101.966667
30
0.0
0
VERTEX
8
0
10
220.912232
20
99.000000
30
0.0
0
VERTEX
8
0
10
217.486620
20
99.000000
30
0.0
0
VERTEX
8
0
10
215.773815
20
101.966667
30
0.0
0
VERTEX
8
0
10
212.348203
20
101.966667
30
0.0
0
VERTEX
8
0
10
210.635397
20
99.000000
30
0.0
0
VERTEX
8
0
10
212.348203
20
96.033333
30
0.0
0
VERTEX
8
0
10
210.635397
20
93.066667
30
0.0
0
VERTEX
8
0
10
207.209786
20
93.066667
30
0.0
0
VERTEX
8
0
10
205.496980
20
90.100000
30
0.0
0
VERTEX
8
0
10
202.071368
20
90.100000
30
0.0
0
VERTEX
8
0
10
200.358562
20
93.066667
30
0.0
0
VERTEX
8
0
10
196.932951
20
93.066667
30
0.0
0
VERTEX
8
0
10
195.220145
20
90.100000
30
0.0
0
VERTEX
8
0
10
196.932951
20
87.133333
30
0.0
0
VERTEX
8
0
10
200.358562
20
87.133333
30
0.0
0
VERTEX
8
0
10
202.071368
20
84.166667
30
0.0
0
VERTEX
8
0
10
200.358562
20
81.200000
30
0.0
0
VERTEX
8
0
10
202.071368
20
78.233333
30
0.0
0
VERTEX
8
0
10
200.358562
20
75.266667
30
0.0
0
VERTEX
8
0
10
196.932951
20
75.266667
30
0.0
0
VERTEX
8
0
10
195.220145
20
72.300000
30
0.0
0
VERTEX
8
0
10
196.932951
20
69.333333
30
0.0
0
VERTEX
8
0
10
195.220145
20
66.366667
30
0.0
0
VERTEX
8
0
10
191.794533
20
66.366667
30
0.0
0
VERTEX
8
0
10
190.081728
20
63.400000
30
0.0
0
VERTEX
8
0
10
186.656116
20
63.400000
30
0.0
0
VERTEX
8
0
10
184.943310
20
66.366667
30
0.0
0
VERTEX
8
0
10
181.517699
20
66.366667
30
0.0
0
VERTEX
8
0
10
179.804893
20
69.333333
30
0.0
0
VERTEX
8
0
10
181.517699
20
72.300000
30
0.0
0
VERTEX
8
0
10
179.804893
20
75.266667
30
0.0
0
VERTEX
8
0
10
176.379281
20
75.266667
30
0.0
0
VERTEX
8
0
10
174.666475
20
72.300000
30
0.0
0
VERTEX
8
0
10
171.240864
20
72.300000
30
0.0
0
VERTEX
8
0
10
169.528058
20
75.266667
30
0.0
0
VERTEX
8
0
10
166.102446
20
75.266667
30
0.0
0
VERTEX
8
0
10
164.389641
20
72.300000
30
0.0
0
VERTEX
8
0
10
166.102446
20
69.333333
30
0.0
0
VERTEX
8
0
10
164.389641
20
66.366667
30
0.0
0
VERTEX
8
0
10
160.964029
20
66.366667
30
0.0
0
VERTEX
8
0
10
159.251223
20
63.400000
30
0.0
0
VERTEX
8
0
10
155.825612
20
63.400000
30
0.0
0
VERTEX
8
0
10
154.112806
20
66.366667
30
0.0
0
VERTEX
8
0
10
150.687194
20
66.366667
30
0.0
0
VERTEX
8
0
10
148.974388
20
69.333333
30
0.0
0
VERTEX
8
0
10
150.687194
20
72.300000
30
0.0
0
VERTEX
8
0
10
148.974388
20
75.266667
30
0.0
0
VERTEX
8
0
10
145.548777
20
75.266667
30
0.0
0
VERTEX
8
0
10
143.835971
20
72.300000
30
0.0
0
VERTEX
8
0
10
140.410359
20
72.300000
30
0.0
0
VERTEX
8
0
10
138.697554
20
75.266667
30
0.0
0
VERTEX
8
0
10
135.271942
20
75.266667
30
0.0
0
VERTEX
8
0
10
133.559136
20
78.233333
30
0.0
0
VERTEX
8
0
10
135.271942
20
81.200000
30
0.0
0
VERTEX
8
0
10
133.559136
20
84.166667
30
0.0
0
VERTEX
8
0
10
130.133525
20
84.166667
30
0.0
0
VERTEX
8
0
10
128.420719
20
87.133333
30
0.0
0
VERTEX
8
0
10
130.133525
20
90.100000
30
0.0
0
VERTEX
8
0
10
128.420719
20
93.066667
30
0.0
0
VERTEX
8
0
10
130.133525
20
96.033333
30
0.0
0
VERTEX
8
0
10
133.559136
20
96.033333
30
0.0
0
VERTEX
8
0
10
135.271942
20
99.000000
30
0.0
0
VERTEX
8
0
10
138.697554
20
99.000000
30
0.0
0
VERTEX
8
0
10
140.410359
20
96.033333
30
0.0
0
VERTEX
8
0
10
143.835971
20
96.033333
30
0.0
0
VERTEX
8
0
10
145.548777
20
99.000000
30
0.0
0
VERTEX
8
0
10
143.835971
20
101.966667
30
0.0
0
VERTEX
8
0
10
145.548777
20
104.933333
30
0.0
0
VERTEX
8
0
10
148.974388
20
104.933333
30
0.0
0
VERTEX
8
0
10
150.687194
20
107.900000
30
0.0
0
VERTEX
8
0
10
148.974388
20
110.866667
30
0.0
0
VERTEX
8
0
10
145.548777
20
110.866667
30
0.0
0
VERTEX
8
0
10
143.835971
20
113.833333
30
0.0
0
VERTEX
8
0
10
145.548777
20
116.800000
30
0.0
0
VERTEX
8
0
10
143.835971
20
119.766667
30
0.0
0
VERTEX
8
0
10
145.548777
20
122.733333
30
0.0
0
VERTEX
8
0
10
148.974388
20
122.733333
30
0.0
0
VERTEX
8
0
10
150.687194
20
125.700000
30
0.0
0
VERTEX
8
0
10
148.974388
20
128.666667
30
0.0
0
VERTEX
8
0
10
145.548777
20
128.666667
30
0.0
0
VERTEX
8
0
10
143.835971
20
125.700000
30
0.0
0
VERTEX
8
0
10
140.410359
20
125.700000
30
0.0
0
VERTEX
8
0
10
138.697554
20
128.666667
30
0.0
0
VERTEX
8
0
10
135.271942
20
128.666667
30
0.0
0
VERTEX
8
0
10
133.559136
20
131.633333
30
0.0
0
VERTEX
8
0
10
135.271942
20
134.600000
30
0.0
0
VERTEX
8
0
10
133.559136
20
137.566667
30
0.0
0
VERTEX
8
0
10
130.133525
20
137.566667
30
0.0
0
VERTEX
8
0
10
128.420719
20
140.533333
30
0.0
0
VERTEX
8
0
10
130.133525
20
143.500000
30
0.0
0
VERTEX
8
0
10
128.420719
20
146.466667
30
0.0
0
VERTEX
8
0
10
130.133525
20
149.433333
30
0.0
0
VERTEX
8
0
10
133.559136
20
149.433333
30
0.0
0
VERTEX
8
0
10
135.271942
20
152.400000
30
0.0
0
VERTEX
8
0
10
133.559136
20
155.366667
30
0.0
0
VERTEX
8
0
10
130.133525
20
155.366667
30
0.0
0
VERTEX
8
0
10
128.420719
20
152.400000
30
0.0
0
VERTEX
8
0
10
124.995107
20
152.400000
30
0.0
0
VERTEX
8
0
10
123.282301
20
155.366667
30
0.0
0
VERTEX
8
0
10
119.856690
20
155.366667
30
0.0
0
VERTEX
8
0
10
118.143884
20
152.400000
30
0.0
0
VERTEX
8
0
10
119.856690
20
149.433333
30
0.0
0
VERTEX
8
0
10
118.143884
20
146.466667
30
0.0
0
VERTEX
8
0
10
114.718272
20
146.466667
30
0.0
0
VERTEX
8
0
10
113.005467
20
143.500000
30
0.0
0
VERTEX
8
0
10
109.579855
20
143.500000
30
0.0
0
VERTEX
8
0
10
107.867049
20
146.466667
30
0.0
0
VERTEX
8
0
10
104.441438
20
146.466667
30
0.0
0
VERTEX
8
0
10
102.728632
20
149.433333
30
0.0
0
VERTEX
8
0
10
104.441438
20
152.400000
30
0.0
0
VERTEX
8
0
10
102.728632
20
155.366667
30
0.0
0
VERTEX
8
0
10
99.303020
20
155.366667
30
0.0
0
VERTEX
8
0
10
97.590214
20
152.400000
30
0.0
0
VERTEX
8
0
10
94.164603
20
152.400000
30
0.0
0
VERTEX
8
0
10
92.451797
20
155.366667
30
0.0
0
VERTEX
8
0
10
89.026185
20
155.366667
30
0.0
0
VERTEX
8
0
10
87.313380
20
158.333333
30
0.0
0
VERTEX
8
0
10
89.026185
20
161.300000
30
0.0
0
VERTEX
8
0
10
87.313380
20
164.266667
30
0.0
0
VERTEX
8
0
10
83.887768
20
164.266667
30
0.0
0
VERTEX
8
0
10
82.174962
20
167.233333
30
0.0
0
VERTEX
8
0
10
83.887768
20
170.200000
30
0.0
0
VERTEX
8
0
10
82.174962
20
173.166667
30
0.0
0
VERTEX
8
0
10
83.887768
20
176.133333
30
0.0
0
VERTEX
8
0
10
87.313380
20
176.133333
30
0.0
0
VERTEX
8
0
10
89.026185
20
179.100000
30
0.0
0
VERTEX
8
0
10
92.451797
20
179.100000
30
0.0
0
VERTEX
8
0
10
94.164603
20
176.133333
30
0.0
0
VERTEX
8
0
10
97.590214
20
176.133333
30
0.0
0
VERTEX
8
0
10
99.303020
20
179.100000
30
0.0
0
VERTEX
8
0
10
97.590214
20
182.066667
30
0.0
0
VERTEX
8
0
10
99.303020
20
185.033333
30
0.0
0
VERTEX
8
0
10
102.728632
20
185.033333
30
0.0
0
VERTEX
8
0
10
104.441438
20
188.000000
30
0.0
0
VERTEX
8
0
10
102.728632
20
190.966667
30
0.0
0
VERTEX
8
0
10
99.303020
20
190.966667
30
0.0
0
VERTEX
8
0
10
97.590214
20
193.933333
30
0.0
0
VERTEX
8
0
10
99.303020
20
196.900000
30
0.0
0
VERTEX
8
0
10
97.590214
20
199.866667
30
0.0
0
VERTEX
8
0
10
99.303020
20
202.833333
30
0.0
0
VERTEX
8
0
10
102.728632
20
202.833333
30
0.0
0
VERTEX
8
0
10
104.441438
20
205.800000
30
0.0
0
VERTEX
8
0
10
102.728632
20
208.766667
30
0.0
0
VERTEX
8
0
10
99.303020
20
208.766667
30
0.0
0
VERTEX
8
0
10
97.590214
20
205.800000
30
0.0
0
VERTEX
8
0
10
94.164603
20
205.800000
30
0.0
0
VERTEX
8
0
10
92.451797
20
208.766667
30
0.0
0
VERTEX
8
0
10
89.026185
20
208.766667
30
0.0
0
VERTEX
8
0
10
87.313380
20
211.733333
30
0.0
0
VERTEX
8
0
10
89.026185
20
214.700000
30
0.0
0
VERTEX
8
0
10
87.313380
20
217.666667
30
0.0
0
VERTEX
8
0
10
83.887768
20
217.666667
30
0.0
0
VERTEX
8
0
10
82.174962
20
220.633333
30
0.0
0
VERTEX
8
0
10
83.887768
20
223.600000
30
0.0
0
VERTEX
8
0
10
82.174962
20
226.566667
30
0.0
0
VERTEX
8
0
10
83.887768
20
229.533333
30
0.0
0
VERTEX
8
0
10
87.313380
20
229.533333
30
0.0
0
VERTEX
8
0
10
89.026185
20
232.500000
30
0.0
0
VERTEX
8
0
10
92.451797
20
232.500000
30
0.0
0
VERTEX
8
0
10
94.164603
20
229.533333
30
0.0
0
VERTEX
8
0
10
97.590214
20
229.533333
30
0.0
0
VERTEX
8
0
10
99.303020
20
232.500000
30
0.0
0
VERTEX
8
0
10
97.590214
20
235.466667
30
0.0
0
VERTEX
8
0
10
99.303020
20
238.433333
30
0.0
0
VERTEX
8
0
10
102.728632
20
238.433333
30
0.0
0
VERTEX
8
0
10
104.441438
20
241.400000
30
0.0
0
VERTEX
8
0
10
102.728632
20
244.366667
30
0.0
0
VERTEX
8
0
10
99.303020
20
244.366667
30
0.0
0
VERTEX
8
0
10
97.590214
20
247.333333
30
0.0
0
VERTEX
8
0
10
99.303020
20
250.300000
30
0.0
0
VERTEX
8
0
10
97.590214
20
253.266667
30
0.0
0
VERTEX
8
0
10
99.303020
20
256.233333
30
0.0
0
VERTEX
8
0
10
102.728632
20
256.233333
30
0.0
0
VERTEX
8
0
10
104.441438
20
259.200000
30
0.0
0
VERTEX
8
0
10
107.867049
20
259.200000
30
0.0
0
VERTEX
8
0
10
109.579855
20
256.233333
30
0.0
0
VERTEX
8
0
10
113.005467
20
256.233333
30
0.0
0
VERTEX
8
0
10
114.718272
20
259.200000
30
0.0
0
VERTEX
8
0
10
113.005467
20
262.166667
30
0.0
0
VERTEX
8
0
10
114.718272
20
265.133333
30
0.0
0
VERTEX
8
0
10
118.143884
20
265.133333
30
0.0
0
VERTEX
8
0
10
119.856690
20
268.100000
30
0.0
0
VERTEX
8
0
10
123.282301
20
268.100000
30
0.0
0
VERTEX
8
0
10
124.995107
20
265.133333
30
0.0
0
VERTEX
8
0
10
128.420719
20
265.133333
30
0.0
0
VERTEX
8
0
10
130.133525
20
268.100000
30
0.0
0
VERTEX
8
0
10
133.559136
20
268.100000
30
0.0
0
VERTEX
8
0
10
135.271942
20
265.133333
30
0.0
0
VERTEX
8
0
10
138.697554
20
265.133333
30
0.0
0
VERTEX
8
0
10
140.410359
20
262.166667
30
0.0
0
VERTEX
8
0
10
138.697554
20
259.200000
30
0.0
0
VERTEX
8
0
10
140.410359
20
256.233333
30
0.0
0
VERTEX
8
0
10
138.697554
20
253.266667
30
0.0
0
VERTEX
8
0
10
135.271942
20
253.266667
30
0.0
0
VERTEX
8
0
10
133.559136
20
256.233333
30
0.0
0
VERTEX
8
0
10
135.271942
20
259.200000
30
0.0
0
VERTEX
8
0
10
133.559136
20
262.166667
30
0.0
0
VERTEX
8
0
10
130.133525
20
262.166667
30
0.0
0
VERTEX
8
0
10
128.420719
20
259.200000
30
0.0
0
VERTEX
8
0
10
124.995107
20
259.200000
30
0.0
0
VERTEX
8
0
10
123.282301
20
262.166667
30
0.0
0
VERTEX
8
0
10
119.856690
20
262.166667
30
0.0
0
VERTEX
8
0
10
118.143884
20
259.200000
30
0.0
0
VERTEX
8
0
10
119.856690
20
256.233333
30
0.0
0
VERTEX
8
0
10
118.143884
20
253.266667
30
0.0
0
VERTEX
8
0
10
114.718272
20
253.266667
30
0.0
0
VERTEX
8
0
10
113.005467
20
250.300000
30
0.0
0
VERTEX
8
0
10
109.579855
20
250.300000
30
0.0
0
VERTEX
8
0
10
107.867049
20
253.266667
30
0.0
0
VERTEX
8
0
10
104.441438
20
253.266667
30
0.0
0
VERTEX
8
0
10
102.728632
20
250.300000
30
0.0
0
VERTEX
8
0
10
104.441438
20
247.333333
30
0.0
0
VERTEX
8
0
10
107.867049
20
247.333333
30
0.0
0
VERTEX
8
0
10
109.579855
20
244.366667
30
0.0
0
VERTEX
8
0
10
107.867049
20
241.400000
30
0.0
0
VERTEX
8
0
10
109.579855
20
238.433333
30
0.0
0
VERTEX
8
0
10
107.867049
20
235.466667
30
0.0
0
VERTEX
8
0
10
104.441438
20
235.466667
30
0.0
0
VERTEX
8
0
10
102.728632
20
232.500000
30
0.0
0
VERTEX
8
0
10
104.441438
20
229.533333
30
0.0
0
VERTEX
8
0
10
102.728632
20
226.566667
30
0.0
0
VERTEX
8
0
10
99.303020
20
226.566667
30
0.0
0
VERTEX
8
0
10
97.590214
20
223.600000
30
0.0
0
VERTEX
8
0
10
94.164603
20
223.600000
30
0.0
0
VERTEX
8
0
10
92.451797
20
226.566667
30
0.0
0
SEQEND
8
0
0
ENDSEC
0
EOF
